<svg width="20" height="21" viewBox="0 0 20 25" fill="none" xmlns="http://www.w3.org/2000/svg">
<path d="M19.3242 10.9272C19.3242 11.3192 19.3032 11.6481 19.2612 11.9141C19.2192 12.18 19.1562 12.397 19.0723 12.5649C18.9883 12.7189 18.8903 12.8309 18.7783 12.9009C18.6663 12.9709 18.5474 13.0059 18.4214 13.0059H11.8916V20.1235C11.8916 20.2635 11.8566 20.3895 11.7866 20.5015C11.7166 20.5994 11.5977 20.6904 11.4297 20.7744C11.2617 20.8444 11.0378 20.9004 10.7578 20.9424C10.4779 20.9844 10.1279 21.0054 9.70801 21.0054C9.28809 21.0054 8.93815 20.9844 8.6582 20.9424C8.37826 20.9004 8.1543 20.8444 7.98633 20.7744C7.81836 20.6904 7.69238 20.5994 7.6084 20.5015C7.53841 20.3895 7.50342 20.2635 7.50342 20.1235V13.0059H0.994629C0.868652 13.0059 0.749674 12.9709 0.637695 12.9009C0.539714 12.8309 0.44873 12.7189 0.364746 12.5649C0.280762 12.397 0.210775 12.18 0.154785 11.9141C0.112793 11.6481 0.0917969 11.3192 0.0917969 10.9272C0.0917969 10.5493 0.112793 10.2274 0.154785 9.96143C0.196777 9.68148 0.252767 9.46452 0.322754 9.31055C0.406738 9.14258 0.497721 9.0236 0.595703 8.95361C0.693685 8.88363 0.805664 8.84863 0.931641 8.84863H7.50342V1.75195C7.50342 1.61198 7.53841 1.486 7.6084 1.37402C7.69238 1.24805 7.81836 1.15007 7.98633 1.08008C8.1543 0.996094 8.37826 0.933105 8.6582 0.891113C8.93815 0.849121 9.28809 0.828125 9.70801 0.828125C10.1279 0.828125 10.4779 0.849121 10.7578 0.891113C11.0378 0.933105 11.2617 0.996094 11.4297 1.08008C11.5977 1.15007 11.7166 1.24805 11.7866 1.37402C11.8566 1.486 11.8916 1.61198 11.8916 1.75195V8.84863H18.4844C18.5964 8.84863 18.7013 8.88363 18.7993 8.95361C18.9113 9.0236 19.0023 9.14258 19.0723 9.31055C19.1562 9.46452 19.2192 9.68148 19.2612 9.96143C19.3032 10.2274 19.3242 10.5493 19.3242 10.9272Z" fill="#5B5B5B"/>
</svg>
